HIERARCHY
ROOT Hips
{
	OFFSET -0.001795 -0.223333 0.028219
	CHANNELS 6 Xposition Yposition Zposition Zrotation Yrotation Xrotation 
	JOINT LeftUpLeg
	{
		OFFSET 0.069520 -0.091406 -0.006815
		CHANNELS 3 Zrotation Yrotation Xrotation
		JOINT LeftLeg
		{
			OFFSET 0.034277 -0.375199 -0.004496
			CHANNELS 3 Zrotation Yrotation Xrotation
			JOINT LeftFoot
			{
				OFFSET -0.013596 -0.397961 -0.043693
				CHANNELS 3 Zrotation Yrotation Xrotation
				JOINT LeftToe
				{
					OFFSET 0.026358 -0.055791 0.119288
					CHANNELS 3 Zrotation Yrotation Xrotation
					End Site
					{
						OFFSET 0.000000 0.000000 0.000000
					}
				}
			}
		}
	}
	JOINT RightUpLeg
	{
		OFFSET -0.067670 -0.090522 -0.004320
		CHANNELS 3 Zrotation Yrotation Xrotation
		JOINT RightLeg
		{
			OFFSET -0.038290 -0.382569 -0.008850
			CHANNELS 3 Zrotation Yrotation Xrotation
			JOINT RightFoot
			{
				OFFSET 0.015774 -0.398415 -0.042312
				CHANNELS 3 Zrotation Yrotation Xrotation
				JOINT RightToe
				{
					OFFSET -0.025372 -0.048144 0.123348
					CHANNELS 3 Zrotation Yrotation Xrotation
					End Site
					{
						OFFSET 0.000000 0.000000 0.000000
					}
				}
			}
		}
	}
	JOINT Spine
	{
		OFFSET -0.002533 0.108963 -0.026696
		CHANNELS 3 Zrotation Yrotation Xrotation
		JOINT Spine1
		{
			OFFSET 0.005487 0.135180 0.001092
			CHANNELS 3 Zrotation Yrotation Xrotation
			JOINT Spine2
			{
				OFFSET 0.001457 0.052922 0.025425
				CHANNELS 3 Zrotation Yrotation Xrotation
				JOINT Neck
				{
					OFFSET -0.002778 0.213870 -0.042857
					CHANNELS 3 Zrotation Yrotation Xrotation
					JOINT Head
					{
						OFFSET 0.005152 0.064970 0.051349
						CHANNELS 3 Zrotation Yrotation Xrotation
						End Site
						{
							OFFSET 0.000000 0.000000 0.000000
						}
					}
				}
				JOINT LeftShoulder
				{
					OFFSET 0.078845 0.121749 -0.034090
					CHANNELS 3 Zrotation Yrotation Xrotation
					JOINT LeftArm
					{
						OFFSET 0.090977 0.030469 -0.008868
						CHANNELS 3 Zrotation Yrotation Xrotation
						JOINT LeftForeArm
						{
							OFFSET 0.259612 -0.012772 -0.027456
							CHANNELS 3 Zrotation Yrotation Xrotation
							JOINT LeftHand
							{
								OFFSET 0.249234 0.008986 -0.001171
								CHANNELS 3 Zrotation Yrotation Xrotation
								End Site
								{
									OFFSET 0.000000 0.000000 0.000000
								}
							}
						}
					}
				}
				JOINT RightShoulder
				{
					OFFSET -0.081759 0.118833 -0.038615
					CHANNELS 3 Zrotation Yrotation Xrotation
					JOINT RightArm
					{
						OFFSET -0.096012 0.032551 -0.009143
						CHANNELS 3 Zrotation Yrotation Xrotation
						JOINT RightForeArm
						{
							OFFSET -0.253742 -0.013329 -0.021401
							CHANNELS 3 Zrotation Yrotation Xrotation
							JOINT RightHand
							{
								OFFSET -0.255298 0.007772 -0.005559
								CHANNELS 3 Zrotation Yrotation Xrotation
								End Site
								{
									OFFSET 0.000000 0.000000 0.000000
								}
							}
						}
					}
				}
			}
		}
	}
}
MOTION
Frames: 16
Frame Time: 0.050000
0.024858 0.959969 -0.055032 1.418819 -6.411443 1.449219 5.029838 -0.108845 -1.958036 -3.128098 0.432114 -5.992862 8.743629 18.050411 22.557926 0.000000 0.000000 0.000000 -9.459701 0.625974 -10.565217 5.193885 -0.470780 2.437923 -2.916369 -12.916694 19.448805 0.000000 0.000000 0.000000 6.636976 -2.393190 28.042921 -4.428053 1.651792 -16.653868 -5.644109 3.294786 26.804489 17.063707 -9.135046 -23.460403 0.000000 0.000000 0.000000 3.478850 -34.080162 10.512864 -45.372566 -32.319576 5.263721 15.892159 -49.353697 -4.784711 0.000000 0.000000 0.000000 14.297033 23.090156 10.540139 59.184802 46.124763 16.868720 -5.440613 19.355753 -0.081577 0.000000 0.000000 0.000000 
0.024982 0.959785 -0.053051 1.448348 -5.964192 1.062739 5.373324 -0.088217 -1.669024 -3.715809 0.470927 -5.892902 8.757249 18.128928 21.974356 0.000000 0.000000 0.000000 -9.738474 0.574461 -9.807932 5.136420 -0.471904 2.454083 -3.150185 -13.165585 19.232395 0.000000 0.000000 0.000000 6.476310 -2.365719 27.867674 -5.197131 1.911798 -16.493844 -4.596183 4.552873 27.015358 16.980821 -8.600279 -24.573170 0.000000 0.000000 0.000000 0.997519 -31.794964 10.418240 -45.323774 -25.968997 2.454230 16.738082 -58.621292 -6.352379 0.000000 0.000000 0.000000 13.822543 22.552168 10.477001 57.612560 45.335850 15.841503 -5.517963 19.967183 -0.095945 0.000000 0.000000 0.000000 
0.025353 0.959944 -0.050399 1.514206 -5.575597 1.027161 5.238778 -0.066626 -1.091523 -3.687766 0.469354 -6.445303 8.369098 17.673466 21.874234 0.000000 0.000000 0.000000 -9.820673 0.546411 -9.186995 4.766119 -0.437541 1.807704 -3.187961 -13.151194 19.162695 0.000000 0.000000 0.000000 6.346226 -2.336777 27.508763 -5.998442 2.181241 -16.223890 -3.907428 5.861013 26.720643 17.109095 -8.246117 -25.352991 0.000000 0.000000 0.000000 0.355080 -29.029731 9.607764 -46.580708 -19.392103 -0.150274 17.373778 -68.845350 -8.379002 0.000000 0.000000 0.000000 14.006586 21.527357 10.324195 56.202682 44.573725 14.949023 -4.918086 20.786947 0.001451 0.000000 0.000000 0.000000 
0.025802 0.960080 -0.047431 1.414909 -4.981961 0.816035 5.629309 -0.049840 -0.725806 -4.168557 0.496599 -6.759119 8.266833 17.612576 21.589684 0.000000 0.000000 0.000000 -9.715650 0.512861 -8.446445 4.525098 -0.419845 1.710838 -3.309202 -13.204855 18.921513 0.000000 0.000000 0.000000 6.112561 -2.306527 27.327484 -6.329430 2.299459 -16.304901 -2.891068 7.331302 26.622041 17.037273 -7.864625 -25.696783 0.000000 0.000000 0.000000 -1.376788 -26.470071 8.993068 -46.918645 -13.426969 -2.572379 12.398259 -76.413412 -6.221954 0.000000 0.000000 0.000000 14.120486 20.816265 10.344997 54.031911 43.842200 13.794873 -4.228395 20.960980 0.105328 0.000000 0.000000 0.000000 
0.026786 0.960377 -0.044493 1.382394 -4.534171 0.931875 5.456063 -0.051017 -0.578258 -3.927555 0.478132 -7.130102 8.042732 17.374474 21.710156 0.000000 0.000000 0.000000 -9.893089 0.487765 -7.863818 4.392432 -0.412788 1.033249 -3.330968 -13.198887 19.108119 0.000000 0.000000 0.000000 6.190763 -2.340353 27.034606 -7.037907 2.513980 -16.770275 -2.119950 8.567542 27.099244 17.512054 -7.897214 -26.048013 0.000000 0.000000 0.000000 -1.962334 -24.384763 8.284474 -47.595909 -9.950825 -4.068079 2.254404 -79.279402 1.394792 0.000000 0.000000 0.000000 13.786821 19.919076 10.124448 53.374591 44.016973 13.692174 -4.499923 20.799157 0.066181 0.000000 0.000000 0.000000 
0.028423 0.959825 -0.042072 1.323879 -3.713267 0.945899 5.295397 -0.066441 -0.695762 -3.972366 0.471874 -7.208401 8.171257 17.637365 21.705786 0.000000 0.000000 0.000000 -9.940233 0.458031 -7.514331 4.456107 -0.427995 1.141791 -4.014434 -14.164280 19.265082 0.000000 0.000000 0.000000 6.285067 -2.428792 27.095583 -7.208430 2.573305 -17.060847 -1.489335 9.515331 26.904340 17.744144 -7.655732 -26.702346 0.000000 0.000000 0.000000 -2.987472 -23.333996 7.944769 -47.663538 -7.904312 -4.874234 -1.996610 -77.565685 4.245573 0.000000 0.000000 0.000000 13.399254 19.181810 9.946300 53.439466 43.890639 13.765227 -4.619119 20.125868 0.049562 0.000000 0.000000 0.000000 
0.030279 0.959134 -0.040340 1.397676 -3.075691 0.879326 5.125792 -0.085974 -0.974521 -4.137701 0.473649 -6.659758 8.202097 17.735438 21.124508 0.000000 0.000000 0.000000 -10.515224 0.417893 -7.076749 5.000312 -0.493477 1.241747 -4.025672 -14.049440 19.036631 0.000000 0.000000 0.000000 6.345189 -2.507491 27.320268 -7.362462 2.603011 -17.744512 -0.948618 9.971847 27.205264 17.955421 -7.617301 -27.009028 0.000000 0.000000 0.000000 -3.947632 -23.162822 7.914681 -46.949492 -8.457840 -4.613142 1.568976 -71.633009 0.980879 0.000000 0.000000 0.000000 13.240034 19.175139 10.066488 52.750761 44.688730 13.959369 -5.118212 18.953232 -0.034807 0.000000 0.000000 0.000000 
0.031806 0.958390 -0.039312 1.293498 -2.245947 0.668442 4.903179 -0.096055 -1.051500 -3.941472 0.452640 -6.425563 8.315675 17.979277 21.186191 0.000000 0.000000 0.000000 -10.743052 0.377021 -6.643947 5.504439 -0.561416 1.382915 -4.380967 -14.485295 19.050566 0.000000 0.000000 0.000000 6.547192 -2.640463 27.589364 -7.419836 2.613534 -18.388241 -0.737645 10.093520 27.094350 18.094153 -7.670263 -26.863918 0.000000 0.000000 0.000000 -4.371586 -24.178074 8.262309 -46.564040 -9.446071 -4.179510 4.871074 -64.848601 -1.359542 0.000000 0.000000 0.000000 13.854145 19.191289 10.343009 52.272628 45.024581 13.940402 -4.902374 18.034183 -0.014271 0.000000 0.000000 0.000000 
0.032757 0.957905 -0.038642 1.281881 -1.566775 0.587476 4.939271 -0.112588 -1.277407 -4.090584 0.454489 -6.052268 8.609729 18.428367 20.840049 0.000000 0.000000 0.000000 -10.860497 0.349208 -6.514731 5.763673 -0.606270 1.913843 -4.713903 -14.895121 18.929181 0.000000 0.000000 0.000000 6.357983 -2.652859 27.699634 -7.258229 2.564145 -18.707624 -0.658518 9.759514 26.882540 18.008606 -7.813312 -26.143511 0.000000 0.000000 0.000000 -4.434403 -25.266223 8.654833 -45.928284 -11.288343 -3.418510 6.489245 -58.300767 -2.081483 0.000000 0.000000 0.000000 14.104797 19.762975 10.697045 51.668678 45.102590 13.742638 -4.700183 17.799191 -0.000842 0.000000 0.000000 0.000000 
0.033337 0.957512 -0.037982 1.201841 -0.959189 0.604608 4.998972 -0.128245 -1.475295 -4.007908 0.442795 -5.900047 8.664391 18.565380 20.954171 0.000000 0.000000 0.000000 -10.786192 0.330458 -6.231291 5.705945 -0.606736 1.718946 -4.664594 -14.737659 19.005330 0.000000 0.000000 0.000000 5.969221 -2.577857 27.467234 -6.989333 2.486218 -19.027152 -0.689863 9.543763 26.746702 17.728774 -7.819430 -25.431523 0.000000 0.000000 0.000000 -3.815845 -26.056828 8.856665 -45.713363 -12.528101 -2.954677 6.287857 -54.209558 -1.807435 0.000000 0.000000 0.000000 14.611731 19.864287 10.913652 51.717362 45.012537 13.683322 -4.540985 17.957050 0.024920 0.000000 0.000000 0.000000 
0.033660 0.957549 -0.037146 0.810946 -0.730495 0.745653 5.443853 -0.137307 -1.605295 -4.023567 0.441015 -5.854904 8.740599 18.684605 20.748354 0.000000 0.000000 0.000000 -10.316058 0.338502 -6.193934 5.713806 -0.611142 1.688122 -4.675039 -14.731226 19.120169 0.000000 0.000000 0.000000 5.804414 -2.497814 26.769106 -7.241341 2.553629 -19.148777 -0.305880 9.290702 26.815612 17.529655 -7.910127 -24.766416 0.000000 0.000000 0.000000 -3.352036 -26.362192 8.922826 -45.103911 -12.822208 -2.828497 4.044135 -52.512926 -0.632004 0.000000 0.000000 0.000000 15.239214 19.727683 10.984433 51.742959 44.210105 13.189590 -4.058188 19.287980 0.113102 0.000000 0.000000 0.000000 
0.033824 0.957473 -0.036182 0.519620 -0.683694 0.988034 5.780309 -0.151783 -1.878590 -4.058248 0.442376 -5.480121 8.917754 18.908469 20.322840 0.000000 0.000000 0.000000 -9.820391 0.356251 -6.208233 5.607513 -0.595048 1.275629 -4.700063 -14.782247 19.318644 0.000000 0.000000 0.000000 5.160378 -2.286418 26.060500 -6.841647 2.443294 -19.014247 -0.472899 9.493176 26.725614 17.143728 -7.792568 -24.081295 0.000000 0.000000 0.000000 -2.688269 -26.172790 8.761643 -44.634343 -12.635044 -2.880673 2.183009 -51.933010 0.206514 0.000000 0.000000 0.000000 15.237258 19.441262 10.900169 53.269168 43.428605 13.375874 -4.037696 20.637358 0.161168 0.000000 0.000000 0.000000 
0.033892 0.957317 -0.035258 0.163557 -0.913045 1.106089 5.992805 -0.156909 -2.057646 -3.921768 0.435271 -5.210798 8.993093 18.976218 20.029145 0.000000 0.000000 0.000000 -9.401811 0.375731 -6.185559 5.582562 -0.586530 1.051852 -4.523053 -14.512637 19.133227 0.000000 0.000000 0.000000 4.609517 -2.104231 25.559627 -6.950551 2.459024 -19.185376 -0.306231 9.751664 26.987883 17.190370 -7.884813 -23.838496 0.000000 0.000000 0.000000 -2.194346 -26.305402 8.741300 -44.273010 -12.431405 -2.970822 -0.036470 -50.816467 1.219305 0.000000 0.000000 0.000000 15.931683 19.137654 10.967213 53.497619 42.660571 12.943862 -3.285222 22.023780 0.332693 0.000000 0.000000 0.000000 
0.033828 0.956955 -0.034607 -0.276092 -0.887762 1.394009 6.459491 -0.176290 -2.554912 -3.955972 0.436615 -4.785306 8.797292 18.717006 19.868320 0.000000 0.000000 0.000000 -8.822522 0.395173 -6.160199 5.550096 -0.578626 0.547475 -4.405780 -14.341788 19.305270 0.000000 0.000000 0.000000 4.080784 -1.928151 24.757020 -7.010402 2.493233 -18.671480 -0.697600 9.732567 26.737992 16.907803 -7.947502 -22.846686 0.000000 0.000000 0.000000 -1.866592 -25.990219 8.600434 -43.920398 -12.341420 -2.970121 -1.776168 -48.940529 1.941039 0.000000 0.000000 0.000000 15.960943 19.231697 11.037562 54.503697 42.140198 13.050817 -2.560026 23.804952 0.542244 0.000000 0.000000 0.000000 
0.033682 0.956787 -0.034533 -0.577331 -1.287766 1.598581 6.771195 -0.182460 -2.926926 -3.954743 0.440042 -4.403719 8.780719 18.648254 19.600257 0.000000 0.000000 0.000000 -8.656451 0.419917 -6.438237 5.832385 -0.603803 0.645310 -4.002968 -13.728636 19.034986 0.000000 0.000000 0.000000 3.214637 -1.682882 24.377590 -7.044174 2.511043 -18.267241 -0.766564 9.819183 26.684899 16.595663 -7.723600 -22.870126 0.000000 0.000000 0.000000 -1.471844 -25.921146 8.546106 -43.982245 -12.266909 -2.995090 -1.930660 -46.398929 1.924669 0.000000 0.000000 0.000000 15.265647 19.573138 11.002216 55.404471 41.944667 13.364501 -1.441352 25.551665 0.849922 0.000000 0.000000 0.000000 
0.033385 0.956645 -0.035065 -0.912860 -1.787843 2.103603 7.115681 -0.198507 -3.618926 -3.979531 0.445604 -3.753725 8.668691 18.431099 19.118363 0.000000 0.000000 0.000000 -8.334016 0.463737 -6.934406 5.902569 -0.598973 0.357544 -3.758816 -13.386144 18.850005 0.000000 0.000000 0.000000 2.540455 -1.482674 23.928670 -7.510934 2.642502 -17.984620 -0.860203 9.880985 26.772693 16.302199 -7.797448 -21.938257 0.000000 0.000000 0.000000 -0.759456 -25.586154 8.377122 -43.695628 -12.301656 -2.987895 -1.249060 -44.361847 1.574734 0.000000 0.000000 0.000000 14.223294 20.100415 10.969536 56.402814 42.649807 14.235555 -0.124017 27.495198 1.267529 0.000000 0.000000 0.000000 
